<?xml version="1.0" encoding="UTF-8"?>
<svg width="228px" height="61px" viewBox="0 0 228 61" version="1.1" xmlns="http://www.w3.org/2000/svg" xmlns:xlink="http://www.w3.org/1999/xlink">
    <title>ADA2F60C-6743-447F-BB7E-FBA67D3A1103</title>
    <defs>
        <polygon id="path-1" points="0.598860565 0.595274092 201.149301 0.595274092 201.149301 33.4006504 0.598860565 33.4006504"></polygon>
    </defs>
    <g id="Mobile" stroke="none" stroke-width="1" fill="none" fill-rule="evenodd">
        <g id="Machine-Subscription-LP-[M]" transform="translate(-73.000000, -158.000000)">
            <g id="LP-USP-Subscription" transform="translate(0.000000, 120.000000)">
                <g id="Logo-Subscription" transform="translate(73.000000, 37.553833)">
                    <g id="Nespresso-logo" transform="translate(25.000000, 27.520687)">
                        <mask id="mask-2" fill="white">
                            <use xlink:href="#path-1"></use>
                        </mask>
                        <g id="Clip-2583"></g>
                        <path d="M117.369949,27.9429392 L133.547804,27.9429392 L133.547804,25.5027531 C130.431325,25.5742443 126.539878,26.0294539 123.357764,25.7398414 L123.357764,17.9071724 C125.940464,17.7809684 129.086992,17.8240091 131.499674,18.0289993 L131.499674,15.4414537 C129.033219,15.7281482 125.963396,15.7055337 123.350647,15.5567151 C123.350647,15.093481 123.357764,8.3514183 123.357764,8.3514183 C126.539878,8.04648623 130.431325,8.51847439 133.547804,8.57245758 L133.547804,6.1322715 L117.369949,6.1322715 L117.369949,27.9429392 Z M168.713959,17.3454554 C165.986546,15.1605952 162.662881,14.4741333 160.334814,12.9917841 C158.684448,11.82458 158.930382,10.3137802 159.759914,9.49746683 C161.725803,7.47163821 165.835506,8.42801607 166.797099,8.63300629 C168.012534,8.96128245 168.667303,9.31217318 169.820266,9.78853836 L169.820266,7.05436275 C164.907917,5.73615161 157.065714,4.47775969 153.973749,9.02985569 C152.82474,10.9017593 152.527406,14.3012412 155.815485,16.2760047 C159.124915,18.6972237 164.541784,19.8549442 165.198925,21.8100111 C165.624367,22.8765439 165.134872,23.9007655 164.331435,24.624432 C161.414234,27.1324618 156.70907,25.5581953 153.685113,24.3151229 L153.662971,27.0135529 C156.958167,28.3733457 161.109782,28.7220479 164.802742,27.9874388 C167.345112,27.4687625 170.163466,25.4130243 170.638727,22.8765439 C171.081566,20.3750796 170.506666,18.7424528 168.713959,17.3454554 L168.713959,17.3454554 Z M150.353541,17.3454554 C147.619011,15.1605952 144.296928,14.4741333 141.956208,12.9917841 C140.310587,11.82458 140.563638,10.3137802 141.397124,9.49746683 C143.366966,7.47163821 147.479042,8.42801607 148.435099,8.63300629 C149.64658,8.96128245 150.295814,9.31217318 151.45194,9.78853836 L151.45194,7.05436275 C146.550662,5.73615161 138.702923,4.47775969 135.607796,9.02985569 C134.470649,10.9017593 134.174895,14.3012412 137.449531,16.2760047 C140.751053,18.6972237 146.167922,19.8549442 146.84167,21.8100111 C147.256832,22.8765439 146.757847,23.9007655 145.978925,24.624432 C143.04828,27.1324618 138.350234,25.5581953 135.313624,24.3151229 L135.306507,27.0135529 C138.592214,28.3733457 142.748573,28.7220479 146.435998,27.9874388 C148.966506,27.4687625 151.798303,25.4130243 152.253004,22.8765439 C152.715612,20.3750796 152.140712,18.7424528 150.353541,17.3454554 L150.353541,17.3454554 Z M198.32644,27.7153344 C196.927543,27.7153344 195.791187,26.6604737 195.791187,25.3692541 C195.791187,24.0831411 196.927543,23.0370344 198.32644,23.0370344 C199.71901,23.0370344 200.850621,24.0831411 200.850621,25.3692541 C200.850621,26.6604737 199.71901,27.7153344 198.32644,27.7153344 L198.32644,27.7153344 Z M198.32644,22.785356 C196.770177,22.785356 195.514412,23.9452651 195.514412,25.3692541 C195.514412,26.8092922 196.770177,27.9692013 198.32644,27.9692013 C199.882702,27.9692013 201.149538,26.8092922 201.149538,25.3692541 C201.149538,23.9452651 199.882702,22.785356 198.32644,22.785356 L198.32644,22.785356 Z M198.604005,25.2488862 L197.757866,25.2488862 L197.757866,24.3960977 L198.604005,24.3960977 C198.864963,24.3960977 199.119596,24.4697775 199.119596,24.8126437 C199.119596,25.0913136 198.94246,25.2488862 198.604005,25.2488862 L198.604005,25.2488862 Z M199.143319,25.4370979 L199.143319,25.4276143 C199.239795,25.3955162 199.626488,25.2685828 199.626488,24.7316689 C199.626488,24.2793773 199.303848,23.9948713 198.664104,23.9948713 L197.232786,23.9948713 L197.232786,26.7319649 L197.757866,26.7319649 L197.757866,25.6034244 L198.520182,25.6034244 C199.000978,25.6034244 199.119596,25.8317587 199.119596,26.3394925 C199.119596,26.4686145 199.119596,26.6254575 199.189976,26.7319649 L199.741943,26.7319649 C199.626488,26.6254575 199.585367,26.3394925 199.585367,26.0148639 C199.585367,25.5910229 199.323618,25.4553354 199.143319,25.4370979 L199.143319,25.4370979 Z M183.836908,25.2642058 L183.749131,25.2642058 C183.091199,25.2642058 178.246858,25.4538764 178.280861,16.5357076 C178.31961,8.26314849 183.026355,8.49654046 183.803695,8.49731882 C184.582617,8.49654046 189.283036,8.26314849 189.324157,16.5357076 C189.358161,25.4538764 184.509865,25.2642058 183.836908,25.2642058 L183.836908,25.2642058 Z M183.798951,5.80326585 C182.233199,5.79232331 172.095351,5.94697785 172.052648,16.954442 C172.052648,27.8823905 182.060808,28.315715 183.79816,28.3049589 C185.529186,28.315715 195.545253,27.8823905 195.516058,16.954442 C195.500178,5.94697785 185.373401,5.79232331 183.798951,5.80326585 L183.798951,5.80326585 Z M107.296945,15.0942105 C105.881442,16.6619115 102.956333,16.5466501 100.929554,16.5408141 L100.929554,8.548384 C100.929554,8.548384 106.08151,7.837119 107.497804,10.1211915 C108.230861,11.4000095 108.319429,13.8037205 107.296945,15.0942105 L107.296945,15.0942105 Z M114.730313,26.8049152 L113.997256,25.5231792 C112.42755,22.8189132 111.170204,20.5545372 109.79345,17.6197484 C109.939745,17.5263721 109.906532,17.5694127 110.316948,17.3884961 C112.505838,16.4262822 113.955345,14.6813121 113.916596,11.6633599 C113.813004,7.96113443 110.14693,6.12862399 106.945046,6.13226607 L94.9528101,6.13226607 L94.9528101,27.9436687 L100.980164,27.9465867 L100.980164,18.929935 L104.408212,18.929935 C105.551685,20.6894952 107.878962,25.6880467 108.242723,26.4744505 L108.953637,27.9429392 L115.380337,27.9429392 L114.800693,26.9282011 C114.775387,26.888808 114.753245,26.8464968 114.730313,26.8049152 L114.730313,26.8049152 Z M70.0731705,17.3454554 C67.3386402,15.1605952 64.0165575,14.4741333 61.6758374,12.9917841 C60.0302164,11.82458 60.284058,10.3137802 61.1175441,9.49746683 C63.0865957,7.47163821 67.1986714,8.42801607 68.154729,8.63300629 C69.3662098,8.96128245 70.0154433,9.31217318 71.1707784,9.78853836 L71.1707784,7.05436275 C66.2695005,5.73615161 58.4217621,4.47775969 55.3282159,9.02985569 C54.1902781,10.9017593 53.8945249,14.3012412 57.1691606,16.2760047 C60.4698922,18.6972237 65.8867611,19.8549442 66.5612997,21.8100111 C66.9764612,22.8765439 66.4774766,23.9007655 65.6985546,24.624432 C62.7671191,27.1324618 58.0690726,25.5581953 55.0332536,24.3151229 L55.0261365,27.0135529 C58.3110524,28.3733457 62.4682028,28.7220479 66.1556276,27.9874388 C68.6861357,27.4687625 71.5179325,25.4130243 71.9726332,22.8765439 C72.4352417,20.3750796 71.8603419,18.7424528 70.0731705,17.3454554 L70.0731705,17.3454554 Z M53.3322777,8.57245758 L53.3520473,6.1322715 L37.1615399,6.1322715 L37.1615399,27.9429392 L53.3520473,27.9429392 L53.3322777,25.5027531 C50.2308236,25.5742443 46.3370042,26.0294539 43.1461916,25.7398414 L43.1461916,17.9071724 C45.7336362,17.7809684 48.8746294,17.8240091 51.2746582,18.0289993 L51.2746582,15.4414537 C48.8311363,15.7281482 45.7534058,15.7055337 43.1461916,15.5567151 L43.1461916,8.3514183 C46.3370042,8.04648623 50.2308236,8.51847439 53.3322777,8.57245758 L53.3322777,8.57245758 Z M15.6585471,7.44610562 C17.9549832,9.86440662 23.4477674,16.6859851 23.4477674,16.6859851 C26.2756103,20.0497214 30.0555568,25.6398996 33.7967549,28.4572385 L33.7967549,6.09871439 L30.4564842,6.09871439 L30.4564842,17.3819305 C28.1054839,14.6171158 25.3519748,11.0834054 23.2911922,8.85039806 C22.3817909,7.84806153 20.0371169,5.5048993 19.3720678,4.98914099 C15.0725763,1.12204789 7.18371719,-0.611979701 0.598860565,1.50941376 L0.598860565,1.7224285 C2.86129299,1.27597293 5.78086675,1.43865201 8.65536583,2.49570122 C10.8039254,3.23249881 13.8856098,5.43413755 15.6585471,7.44610562 L15.6585471,7.44610562 Z M36.0117403,31.4999937 C33.8639715,30.7631961 30.7822871,28.5615573 29.008559,26.5495893 C26.7129137,24.1305588 21.2193387,17.3089803 21.2193387,17.3089803 C18.3922866,13.945244 14.6115493,8.35579532 10.8703512,5.53772691 L10.8703512,27.896251 L14.2114127,27.896251 L14.2114127,16.6130348 C16.5616222,19.3785791 19.3151313,22.9122895 21.3767047,25.1452968 C22.286106,26.1469039 24.6299892,28.4900661 25.2950384,29.0058244 C29.5945298,32.8729175 37.4833889,34.6069451 44.0682455,32.4855516 L44.0682455,32.2732664 C41.8058131,32.719722 38.8862394,32.5563134 36.0117403,31.4999937 L36.0117403,31.4999937 Z M86.939798,15.9564825 C85.535366,17.4826019 82.4434014,17.4636348 80.3865727,17.3337834 L80.4063423,8.58631813 C80.4063423,8.58631813 85.7338527,7.89985622 87.1398663,10.1335931 C87.9488381,11.4685828 88.1409986,14.4741333 86.939798,15.9564825 L86.939798,15.9564825 Z M86.2613055,6.13226424 L74.4264353,6.13226424 L74.4264353,27.9436687 L80.4213672,27.9465867 L80.4213672,21.4423418 L80.4182041,19.9505091 C80.4182041,19.9505091 88.9744847,20.3845631 91.3879568,17.4388317 C93.1885715,15.5384776 93.2913734,12.5095829 92.5496182,10.1649617 C91.5650924,7.49862981 89.4133697,6.12862399 86.2613055,6.13226424 L86.2613055,6.13226424 Z" id="Fill-2582" fill="#FFFFFF" mask="url(#mask-2)"></path>
                    </g>
                    <path d="M4.86213729,32.2861192 C5.71590545,32.4342673 6.67096813,32.9157488 6.67096813,34.2737735 C6.67096813,36.2490821 4.48590048,36.5206871 3.00989451,36.5206871 L0,36.5206871 L0,28.5206871 L2.34424477,28.5206871 C4.19648754,28.5206871 6.10661291,28.7429093 6.10661291,30.6688352 C6.10661291,31.6441438 5.4843751,32.1256253 4.86213729,32.2861192 Z M4.73190147,30.7305636 C4.73190147,29.5577241 3.5018965,29.48365 2.32977412,29.48365 L1.36024079,29.48365 L1.36024079,31.9774772 L2.34424477,31.9774772 C3.5018965,31.9774772 4.73190147,31.8910574 4.73190147,30.7305636 Z M2.99542387,35.5330327 C4.25437013,35.5330327 5.28178605,35.2861192 5.28178605,34.2243908 C5.28178605,33.1503167 4.28331142,32.9280945 3.05330645,32.9280945 L1.36024079,32.9280945 L1.36024079,35.5330327 L2.99542387,35.5330327 Z M13.2825692,36.5206871 L13.2825692,33.3478475 L9.95432043,28.5206871 L11.444797,28.5206871 L13.9916309,32.3355019 L16.5529353,28.5206871 L18,28.5206871 L14.64281,33.3478475 L14.64281,36.5206871 L13.2825692,36.5206871 Z" id="Paragraph-Copy-8" fill="#FFFFFF"></path>
                    <path d="M4.86053856,18.5206871 C2.7287234,18.5206871 1.02327128,17.9817649 0,17.4697889 L0,14.9099086 C1.10854388,15.6105074 2.87084441,16.2841601 4.80369016,16.2841601 C6.93550532,16.2841601 8.18617021,15.4488308 8.18617021,13.6973338 C8.18617021,9.76320202 0.142121011,11.0835613 0.142121011,5.37098646 C0.142121011,2.37996849 2.27393617,0.520687054 5.82696144,0.520687054 C7.64611037,0.520687054 9.3515625,1.00571699 10.119016,1.3829625 L10.119016,3.96978885 C9.01047207,3.29613616 7.44714096,2.73026789 5.99750665,2.73026789 C4.09308511,2.73026789 2.84242021,3.61948945 2.84242021,5.20930981 C2.84242021,9.00871101 10.9148936,7.6075134 10.9148936,13.508711 C10.9148936,16.8500284 8.61253324,18.5206871 4.86053856,18.5206871 Z M25.4680851,18.5206871 C20.5303951,18.5206871 18.1914894,16.1681035 18.1914894,11.1073132 L18.1914894,0.520687054 L20.8768997,0.520687054 L20.8768997,10.5602007 C20.8768997,14.1984986 21.9741641,16.1954591 25.4680851,16.1954591 C28.8465046,16.1954591 30.0592705,14.2805655 30.0592705,10.5602007 L30.0592705,0.520687054 L32.7446809,0.520687054 L32.7446809,11.0799576 C32.7446809,16.3869485 30.2036474,18.5206871 25.4680851,18.5206871 Z M50.957216,8.99290928 C52.664559,9.32624261 54.5744681,10.4095759 54.5744681,13.4651315 C54.5744681,17.9095759 50.2048276,18.5206871 47.25315,18.5206871 L41.2340426,18.5206871 L41.2340426,0.520687054 L45.9220012,0.520687054 C49.6260673,0.520687054 53.4458854,1.02068705 53.4458854,5.35402039 C53.4458854,7.54846483 52.2015507,8.63179817 50.957216,8.99290928 Z M50.9361702,5.6635442 C50.9361702,3.24487376 48.7240435,3.09211563 46.6160168,3.09211563 L44.8723404,3.09211563 L44.8723404,8.23497277 L46.6420418,8.23497277 C48.7240435,8.23497277 50.9361702,8.05675495 50.9361702,5.6635442 Z M47.9064929,15.9492585 C50.2425218,15.9492585 52.1489362,15.4617839 52.1489362,13.365643 C52.1489362,11.2451285 50.2962236,10.8064013 48.0138965,10.8064013 L44.8723404,10.8064013 L44.8723404,15.9492585 L47.9064929,15.9492585 Z M65.4988364,18.5206871 C63.3670213,18.5206871 61.6615691,17.9817649 60.6382979,17.4697889 L60.6382979,14.9099086 C61.7468418,15.6105074 63.5091423,16.2841601 65.441988,16.2841601 C67.5738032,16.2841601 68.8244681,15.4488308 68.8244681,13.6973338 C68.8244681,9.76320202 60.7804189,11.0835613 60.7804189,5.37098646 C60.7804189,2.37996849 62.912234,0.520687054 66.4652593,0.520687054 C68.2844082,0.520687054 69.9898604,1.00571699 70.7573138,1.3829625 L70.7573138,3.96978885 C69.6487699,3.29613616 68.0854388,2.73026789 66.6358045,2.73026789 C64.731383,2.73026789 63.4807181,3.61948945 63.4807181,5.20930981 C63.4807181,9.00871101 71.5531915,7.6075134 71.5531915,13.508711 C71.5531915,16.8500284 69.2508311,18.5206871 65.4988364,18.5206871 Z M88.0374795,18.5206871 C82.1602291,18.5206871 78.8297872,14.748232 78.8297872,9.54763316 C78.8297872,4.29314214 82.2441899,0.520687054 87.9535188,0.520687054 C90.3603928,0.520687054 92.3194763,1.19433975 93.1031097,1.78715412 L93.1031097,4.32008825 C91.6477905,3.37697448 89.9126023,2.83805232 88.0934534,2.83805232 C84.0353519,2.83805232 81.4885434,5.50571699 81.4885434,9.49374095 C81.4885434,13.751226 84.3711948,16.1763757 88.2893617,16.1763757 C90.3883797,16.1763757 92.2075286,15.4757769 93.3829787,14.7212859 L93.3829787,17.2811661 C92.6273322,17.8200883 90.5842881,18.5206871 88.0374795,18.5206871 Z M111.840624,11.5206871 L116.425532,18.5206871 L113.3321,18.5206871 L109.189111,11.9095759 L105.68138,11.9095759 L105.68138,18.5206871 L103.085106,18.5206871 L103.085106,0.520687054 L108.553852,0.520687054 C112.337782,0.520687054 115.569314,1.68735372 115.569314,6.18735372 C115.569314,9.35402039 113.801639,10.9651315 111.840624,11.5206871 Z M108.139066,9.52068705 C110.435483,9.52068705 112.787234,9.01249959 112.787234,6.29369665 C112.787234,3.54948434 110.269477,3.09211563 108.056063,3.09211563 L105.510638,3.09211563 L105.510638,9.52068705 L108.139066,9.52068705 Z M123.702128,18.5206871 L123.702128,0.520687054 L126.12766,0.520687054 L126.12766,18.5206871 L123.702128,18.5206871 Z M141.351968,0.520687054 C145.595327,0.520687054 149.170213,1.4651315 149.170213,6.32624261 C149.170213,11.7151315 144.54902,12.2151315 141.119455,12.2151315 L138.561813,12.2151315 L138.561813,18.5206871 L135.829787,18.5206871 L135.829787,0.520687054 L141.351968,0.520687054 Z M140.519149,9.52068705 C143.025532,9.52068705 145.531915,9.05626554 145.531915,6.29417972 C145.531915,3.50765066 143.079433,3.09211563 140.519149,3.09211563 L138.255319,3.09211563 L138.255319,9.52068705 L140.519149,9.52068705 Z M160.575865,18.5206871 L160.575865,2.74290928 L155.234043,2.74290928 L155.234043,0.520687054 L168.574468,0.520687054 L168.574468,2.74290928 L163.232645,2.74290928 L163.232645,18.5206871 L160.575865,18.5206871 Z M175.851064,18.5206871 L175.851064,0.520687054 L178.276596,0.520687054 L178.276596,18.5206871 L175.851064,18.5206871 Z M195.805556,18.5206871 C190.078605,18.5206871 186.765957,14.6135014 186.765957,9.52068705 C186.765957,4.34703436 190.190898,0.520687054 195.917849,0.520687054 C201.644799,0.520687054 204.957447,4.34703436 204.957447,9.41290262 C204.957447,14.5596092 201.588652,18.5206871 195.805556,18.5206871 Z M195.89083,15.9492585 C199.881306,15.9492585 202.531915,12.9778299 202.531915,8.83497277 C202.531915,4.69211563 199.823051,1.80640134 195.861702,1.80640134 C191.958608,1.80640134 189.191489,4.69211563 189.191489,8.83497277 C189.191489,12.9206871 191.871225,15.9492585 195.89083,15.9492585 Z M227.729996,18.5206871 L215.903841,6.04463915 L215.903841,18.251226 L213.446809,18.251226 L213.446809,0.520687054 L213.716812,0.520687054 L225.542968,13.0236811 L225.542968,0.790148132 L228,0.790148132 L228,18.5206871 L227.729996,18.5206871 Z" id="Paragraph-Copy-4" fill="#FFFFFF"></path>
                </g>
            </g>
        </g>
    </g>
</svg>