<?xml version="1.0" encoding="UTF-8"?>
<svg width="312px" height="85px" viewBox="0 0 312 85" version="1.1" xmlns="http://www.w3.org/2000/svg" xmlns:xlink="http://www.w3.org/1999/xlink">
    <title>FEF1E3F3-3B51-4D34-B741-43CD5A712493</title>
    <defs>
        <polygon id="path-1" points="0.819165649 0.828054231 275.146849 0.828054231 275.146849 46.461874 0.819165649 46.461874"></polygon>
    </defs>
    <g id="Desktop" stroke="none" stroke-width="1" fill="none" fill-rule="evenodd">
        <g id="Machine-Subscription-LP-[D]" transform="translate(-804.000000, -377.000000)">
            <g id="Logo-Subscription" transform="translate(804.000000, 377.000000)">
                <g id="Nespresso-logo" transform="translate(34.000000, 37.774059)">
                    <mask id="mask-2" fill="white">
                        <use xlink:href="#path-1"></use>
                    </mask>
                    <g id="Clip-2583"></g>
                    <path d="M160.547273,38.8699413 L182.676536,38.8699413 L182.676536,35.4755278 C178.413586,35.5749755 173.090578,36.2081934 168.737848,35.8053288 L168.737848,24.9097182 C172.270655,24.7341625 176.574709,24.7940341 179.874952,25.0791851 L179.874952,21.4797876 C176.501154,21.8785932 172.302024,21.8471352 168.728112,21.6401217 C168.728112,20.9957412 168.737848,11.6172153 168.737848,11.6172153 C173.090578,11.1930404 178.413586,11.8495981 182.676536,11.9246913 L182.676536,8.53027779 L160.547273,8.53027779 L160.547273,38.8699413 Z M230.779397,24.1283435 C227.048639,21.0891003 222.502286,20.1341995 219.317784,18.0721821 C217.060292,16.4485464 217.396698,14.3469529 218.531394,13.2114226 C221.220481,10.3933998 226.842036,11.7237663 228.157374,12.0089174 C229.819935,12.4655649 230.715577,12.9536704 232.292684,13.6163168 L232.292684,9.81295003 C225.573211,7.9792564 214.846068,6.22877411 210.61665,12.5609535 C209.044951,15.1648594 208.638235,19.8936985 213.135912,22.6406872 C217.662795,26.0087166 225.072387,27.6191603 225.971274,30.3387502 C226.553224,31.8223474 225.883657,33.2470877 224.784657,34.2537419 C220.794294,37.7425292 214.358224,35.5526505 210.221833,33.8234784 L210.191545,37.5771213 C214.698957,39.468657 220.377842,39.9537181 225.429346,38.9318424 C228.906987,38.2103393 232.762139,35.3507108 233.412236,31.8223474 C234.017984,28.342693 233.231593,26.0716325 230.779397,24.1283435 L230.779397,24.1283435 Z M205.664663,24.1283435 C201.92417,21.0891003 197.37998,20.1341995 194.178171,18.0721821 C191.927169,16.4485464 192.273311,14.3469529 193.413414,13.2114226 C196.10791,10.3933998 201.732711,11.7237663 203.040477,12.0089174 C204.69763,12.4655649 205.585699,12.9536704 207.167133,13.6163168 L207.167133,9.81295003 C200.462804,7.9792564 189.728089,6.22877411 185.494344,12.5609535 C183.938871,15.1648594 183.534318,19.8936985 188.013606,22.6406872 C192.529672,26.0087166 199.939265,27.6191603 200.860867,30.3387502 C201.428755,31.8223474 200.746207,33.2470877 199.68074,34.2537419 C195.671988,37.7425292 189.245654,35.5526505 185.091955,33.8234784 L185.08222,37.5771213 C189.576652,39.468657 195.262027,39.9537181 200.305958,38.9318424 C203.767374,38.2103393 207.640915,35.3507108 208.262888,31.8223474 C208.895678,28.342693 208.109287,26.0716325 205.664663,24.1283435 L205.664663,24.1283435 Z M271.285532,38.5533323 C269.372018,38.5533323 267.817626,37.0859715 267.817626,35.2898245 C267.817626,33.5007808 269.372018,32.0455973 271.285532,32.0455973 C273.190392,32.0455973 274.738294,33.5007808 274.738294,35.2898245 C274.738294,37.0859715 273.190392,38.5533323 271.285532,38.5533323 L271.285532,38.5533323 Z M271.285532,31.6955008 C269.156761,31.6955008 267.439033,33.3089888 267.439033,35.2898245 C267.439033,37.2929851 269.156761,38.9064731 271.285532,38.9064731 C273.414302,38.9064731 275.147173,37.2929851 275.147173,35.2898245 C275.147173,33.3089888 273.414302,31.6955008 271.285532,31.6955008 L271.285532,31.6955008 Z M271.665206,35.122387 L270.507795,35.122387 L270.507795,33.9361181 L271.665206,33.9361181 C272.022164,33.9361181 272.370469,34.0386102 272.370469,34.5155532 C272.370469,34.9031962 272.12817,35.122387 271.665206,35.122387 L271.665206,35.122387 Z M272.40292,35.3841983 L272.40292,35.3710062 C272.534886,35.3263563 273.063834,35.1497859 273.063834,34.4029134 C273.063834,33.7737546 272.622503,33.3779934 271.747414,33.3779934 L269.789551,33.3779934 L269.789551,37.1854192 L270.507795,37.1854192 L270.507795,35.6155664 L271.550546,35.6155664 C272.208215,35.6155664 272.370469,35.9331901 272.370469,36.6394717 C272.370469,36.8190864 272.370469,37.0372624 272.46674,37.1854192 L273.221761,37.1854192 C273.063834,37.0372624 273.007586,36.6394717 273.007586,36.187898 C273.007586,35.5983152 272.649546,35.4095676 272.40292,35.3841983 L272.40292,35.3841983 Z M251.465682,35.1436972 L251.345614,35.1436972 C250.445646,35.1436972 243.819198,35.407538 243.865711,23.0019462 C243.918714,11.4944278 250.356947,11.819087 251.420251,11.8201697 C252.485718,11.819087 258.915297,11.4944278 258.971545,23.0019462 C259.018058,35.407538 252.386202,35.1436972 251.465682,35.1436972 L251.465682,35.1436972 Z M251.413761,8.07261546 C249.27201,8.05739387 235.404713,8.27252561 235.346302,23.5844255 C235.346302,38.7857152 249.036201,39.3884899 251.412679,39.3735277 C253.780504,39.3884899 267.481219,38.7857152 267.441284,23.5844255 C267.419563,8.27252561 253.56741,8.05739387 251.413761,8.07261546 L251.413761,8.07261546 Z M146.768675,20.996756 C144.832446,23.1775018 140.831266,23.0171677 138.058888,23.0090496 L138.058888,11.8912038 C138.058888,11.8912038 145.106114,10.9018007 147.043425,14.079053 C148.046154,15.8579489 148.167303,19.2016237 146.768675,20.996756 L146.768675,20.996756 Z M156.936584,37.2868964 L155.933855,35.5039414 C153.786695,31.7421803 152.066804,28.592327 150.183578,24.5098979 C150.383691,24.380007 150.33826,24.4398786 150.899658,24.188215 C153.893783,22.8497303 155.876525,20.4223949 155.823522,16.2242817 C155.68182,11.074312 150.667095,8.52520392 146.287322,8.53027023 L129.883457,8.53027023 L129.883457,38.870956 L138.128116,38.8750151 L138.128116,26.332429 L142.817253,26.332429 C144.38138,28.7800599 147.564801,35.73328 148.062379,36.8272045 L149.034821,38.8699413 L157.825735,38.8699413 L157.032854,37.4583929 C156.99824,37.4035952 156.967953,37.3447384 156.936584,37.2868964 L156.936584,37.2868964 Z M95.8512508,24.1283435 C92.1107585,21.0891003 87.5665688,20.1341995 84.3647593,18.0721821 C82.1137574,16.4485464 82.4609807,14.3469529 83.6010845,13.2114226 C86.2944985,10.3933998 91.919299,11.7237663 93.2270651,12.0089174 C94.8842178,12.4655649 95.7722873,12.9536704 97.3526399,13.6163168 L97.3526399,9.81295003 C90.6483104,7.9792564 79.9135951,6.22877411 75.6820145,12.5609535 C74.1254591,15.1648594 73.7209062,19.8936985 78.2001943,22.6406872 C82.7151784,26.0087166 90.1247713,27.6191603 91.0474549,30.3387502 C91.6153434,31.8223474 90.9327955,33.2470877 89.8673285,34.2537419 C85.8574948,37.7425292 79.4311603,35.5526505 75.2785432,33.8234784 L75.268808,37.5771213 C79.7621582,39.468657 85.4486151,39.9537181 90.4925467,38.9318424 C93.9539624,38.2103393 97.8275028,35.3507108 98.4494759,31.8223474 C99.082266,28.342693 98.2958756,26.0716325 95.8512508,24.1283435 L95.8512508,24.1283435 Z M72.9518229,11.9246913 L72.9788652,8.53027779 L50.8322951,8.53027779 L50.8322951,38.8699413 L72.9788652,38.8699413 L72.9518229,35.4755278 C68.7094253,35.5749755 63.383172,36.2081934 59.0185431,35.8053288 L59.0185431,24.9097182 C62.5578407,24.7341625 66.8543228,24.7940341 70.1372593,25.0791851 L70.1372593,21.4797876 C66.7948298,21.8785932 62.584883,21.8471352 59.0185431,21.6401217 L59.0185431,11.6172153 C63.383172,11.1930404 68.7094253,11.8495981 72.9518229,11.9246913 L72.9518229,11.9246913 Z M21.4189156,10.3578828 C24.5601503,13.7218531 32.0735856,23.2109893 32.0735856,23.2109893 C35.9417176,27.8901045 41.1122073,35.666305 46.229694,39.5853558 L46.229694,8.48359826 L41.6606253,8.48359826 L41.6606253,24.1790821 C38.4447538,20.3330949 34.6783009,15.4175377 31.8594106,12.3113195 C30.6154643,10.9170223 27.4082464,7.65757357 26.4985431,6.94012953 C20.6173815,1.56082134 9.8264182,-0.851292518 0.819165649,2.09966545 L0.819165649,2.39597898 C3.91388758,1.7749383 7.9074959,2.00123254 11.8394477,3.47163766 C14.778406,4.49655773 18.9937612,7.55914065 21.4189156,10.3578828 L21.4189156,10.3578828 Z M49.2595144,43.8179712 C46.3216378,42.7930511 42.1062826,39.7304682 39.6800466,36.9317261 C36.5398935,33.566741 29.0253765,24.0776048 29.0253765,24.0776048 C25.1583262,19.3984896 19.9867548,11.6233039 14.8692681,7.70323833 L14.8692681,38.8049958 L19.4394185,38.8049958 L19.4394185,23.109512 C22.6542083,26.956514 26.4206612,31.8720712 29.2406333,34.9782893 C30.4845795,36.3715718 33.6907158,39.6310205 34.6004191,40.3484646 C40.4815806,45.7277728 51.2725439,48.1398866 60.2797965,45.1889286 L60.2797965,44.8936299 C57.1850745,45.5146706 53.1914662,45.2873616 49.2595144,43.8179712 L49.2595144,43.8179712 Z M118.922668,22.1962169 C117.001582,24.3191207 112.772165,24.2927366 109.958683,24.1121071 L109.985725,11.9439719 C109.985725,11.9439719 117.273087,10.9890712 119.196336,14.0963041 C120.302907,15.9533375 120.565759,20.1341995 118.922668,22.1962169 L118.922668,22.1962169 Z M117.994576,8.53026768 L101.805967,8.53026768 L101.805967,38.870956 L110.006277,38.8750151 L110.006277,29.8273049 L110.001951,27.7520955 C110.001951,27.7520955 121.705862,28.355885 125.007188,24.2582343 C127.470201,21.6147524 127.610821,17.4014176 126.596194,14.1399393 C125.249487,10.4309464 122.306202,8.52520392 117.994576,8.53026768 L117.994576,8.53026768 Z" id="Fill-2582" fill="#FFFFFF" mask="url(#mask-2)"></path>
                </g>
                <path d="M6.48284972,43.9515277 C7.62120726,44.1552314 8.89462417,44.8172685 8.89462417,46.6845524 C8.89462417,49.4006018 5.98120064,49.7740586 4.01319269,49.7740586 L0,49.7740586 L0,38.7740586 L3.12565969,38.7740586 C5.59531672,38.7740586 8.14215054,39.0796141 8.14215054,41.7277623 C8.14215054,43.0688117 7.31250013,43.7308487 6.48284972,43.9515277 Z M6.30920196,41.8126388 C6.30920196,40.1999845 4.66919534,40.0981327 3.10636549,40.0981327 L1.81365439,40.0981327 L1.81365439,43.527145 L3.12565969,43.527145 C4.66919534,43.527145 6.30920196,43.4083178 6.30920196,41.8126388 Z M3.99389849,48.4160339 C5.67249351,48.4160339 7.04238139,48.0765277 7.04238139,46.6166512 C7.04238139,45.1397993 5.7110819,44.8342438 4.07107527,44.8342438 L1.81365439,44.8342438 L1.81365439,48.4160339 L3.99389849,48.4160339 Z M17.7100922,49.7740586 L17.7100922,45.4114043 L13.2724272,38.7740586 L15.2597294,38.7740586 L18.6555078,44.0194289 L22.0705804,38.7740586 L24,38.7740586 L19.5237466,45.4114043 L19.5237466,49.7740586 L17.7100922,49.7740586 Z" id="Paragraph-Copy-8" fill="#FFFFFF"></path>
                <path d="M6.6512633,24.7740586 C3.73404255,24.7740586 1.40026596,24.0554957 0,23.372861 L0,19.9596873 C1.51695479,20.8938191 3.92852394,21.7920226 6.57347074,21.7920226 C9.49069149,21.7920226 11.2021277,20.6782502 11.2021277,18.3429209 C11.2021277,13.0974119 0.194481383,14.8578909 0.194481383,7.24112445 C0.194481383,3.25310049 3.11170213,0.774058577 7.9737367,0.774058577 C10.4630984,0.774058577 12.796875,1.42076516 13.8470745,1.92375918 L13.8470745,5.37286097 C12.3301197,4.47465738 10.1908245,3.72016636 8.20711436,3.72016636 C5.60106383,3.72016636 3.88962766,4.9057951 3.88962766,7.02555558 C3.88962766,12.0914238 14.9361702,10.2231604 14.9361702,18.0914238 C14.9361702,22.5465137 11.7855718,24.7740586 6.6512633,24.7740586 Z M34.8510638,24.7740586 C28.0942249,24.7740586 24.893617,21.6372805 24.893617,14.8895601 L24.893617,0.774058577 L28.5683891,0.774058577 L28.5683891,14.1600768 C28.5683891,19.0111406 30.0699088,21.6737546 34.8510638,21.6737546 C39.4741641,21.6737546 41.1337386,19.1205631 41.1337386,14.1600768 L41.1337386,0.774058577 L44.8085106,0.774058577 L44.8085106,14.8530859 C44.8085106,21.9290738 41.331307,24.7740586 34.8510638,24.7740586 Z M69.7309272,12.0703549 C72.0672913,12.5147993 74.6808511,13.9592438 74.6808511,18.0333178 C74.6808511,23.9592438 68.7013431,24.7740586 64.6622052,24.7740586 L56.4255319,24.7740586 L56.4255319,0.774058577 L62.8406332,0.774058577 C67.9093552,0.774058577 73.1364748,1.44072524 73.1364748,7.21850302 C73.1364748,10.1444289 71.433701,11.5888734 69.7309272,12.0703549 Z M69.7021277,7.63120143 C69.7021277,4.40630752 66.6750068,4.20263001 63.7903388,4.20263001 L61.4042553,4.20263001 L61.4042553,11.0597729 L63.825952,11.0597729 C66.6750068,11.0597729 69.7021277,10.8221491 69.7021277,7.63120143 Z M65.5562534,21.3454871 C68.7529246,21.3454871 71.3617021,20.695521 71.3617021,17.9006666 C71.3617021,15.0733138 68.8264112,14.4883443 65.7032268,14.4883443 L61.4042553,14.4883443 L61.4042553,21.3454871 L65.5562534,21.3454871 Z M89.6299867,24.7740586 C86.712766,24.7740586 84.3789894,24.0554957 82.9787234,23.372861 L82.9787234,19.9596873 C84.4956782,20.8938191 86.9072473,21.7920226 89.5521941,21.7920226 C92.4694149,21.7920226 94.1808511,20.6782502 94.1808511,18.3429209 C94.1808511,13.0974119 83.1732048,14.8578909 83.1732048,7.24112445 C83.1732048,3.25310049 86.0904255,0.774058577 90.9524601,0.774058577 C93.4418218,0.774058577 95.7755984,1.42076516 96.8257979,1.92375918 L96.8257979,5.37286097 C95.3088431,4.47465738 93.1695479,3.72016636 91.1858378,3.72016636 C88.5797872,3.72016636 86.8683511,4.9057951 86.8683511,7.02555558 C86.8683511,12.0914238 97.9148936,10.2231604 97.9148936,18.0914238 C97.9148936,22.5465137 94.7642952,24.7740586 89.6299867,24.7740586 Z M120.47234,24.7740586 C112.429787,24.7740586 107.87234,19.7441185 107.87234,12.8099867 C107.87234,5.8039987 112.544681,0.774058577 120.357447,0.774058577 C123.651064,0.774058577 126.331915,1.67226217 127.404255,2.46268133 L127.404255,5.83992684 C125.412766,4.58244181 123.038298,3.86387894 120.548936,3.86387894 C114.995745,3.86387894 111.510638,7.42076516 111.510638,12.7381304 C111.510638,18.4147771 115.455319,21.6483101 120.817021,21.6483101 C123.689362,21.6483101 126.178723,20.7141783 127.787234,19.7081903 L127.787234,23.121364 C126.753191,23.8399268 123.957447,24.7740586 120.47234,24.7740586 Z M153.045064,15.4407252 L159.319149,24.7740586 L155.086031,24.7740586 L149.416678,15.9592438 L144.616625,15.9592438 L144.616625,24.7740586 L141.06383,24.7740586 L141.06383,0.774058577 L148.547377,0.774058577 C153.725387,0.774058577 158.147482,2.32961413 158.147482,8.32961413 C158.147482,12.5518364 155.728558,14.6999845 153.045064,15.4407252 Z M147.979775,12.7740586 C151.122239,12.7740586 154.340426,12.0964753 154.340426,8.47140471 C154.340426,4.81245496 150.895073,4.20263001 147.866192,4.20263001 L144.382979,4.20263001 L144.382979,12.7740586 L147.979775,12.7740586 Z M169.276596,24.7740586 L169.276596,0.774058577 L172.595745,0.774058577 L172.595745,24.7740586 L169.276596,24.7740586 Z M193.429008,0.774058577 C199.235711,0.774058577 204.12766,2.03331784 204.12766,8.51479932 C204.12766,15.6999845 197.803922,16.3666512 193.110833,16.3666512 L189.610903,16.3666512 L189.610903,24.7740586 L185.87234,24.7740586 L185.87234,0.774058577 L193.429008,0.774058577 Z M192.289362,12.7740586 C195.719149,12.7740586 199.148936,12.1548299 199.148936,8.4720488 C199.148936,4.75667672 195.792908,4.20263001 192.289362,4.20263001 L189.191489,4.20263001 L189.191489,12.7740586 L192.289362,12.7740586 Z M219.735395,24.7740586 L219.735395,3.73702154 L212.425532,3.73702154 L212.425532,0.774058577 L230.680851,0.774058577 L230.680851,3.73702154 L223.370988,3.73702154 L223.370988,24.7740586 L219.735395,24.7740586 Z M240.638298,24.7740586 L240.638298,0.774058577 L243.957447,0.774058577 L243.957447,24.7740586 L240.638298,24.7740586 Z M267.944444,24.7740586 C260.107565,24.7740586 255.574468,19.5644777 255.574468,12.7740586 C255.574468,5.87585498 260.261229,0.774058577 268.098109,0.774058577 C275.934988,0.774058577 280.468085,5.87585498 280.468085,12.630346 C280.468085,19.4926215 275.858156,24.7740586 267.944444,24.7740586 Z M268.061135,21.3454871 C273.521788,21.3454871 277.148936,17.3835824 277.148936,11.8597729 C277.148936,6.33596334 273.44207,2.48834429 268.021277,2.48834429 C262.680201,2.48834429 258.893617,6.33596334 258.893617,11.8597729 C258.893617,17.3073919 262.560624,21.3454871 268.061135,21.3454871 Z M311.630521,24.7740586 L295.447361,8.13932804 L295.447361,24.4147771 L292.085106,24.4147771 L292.085106,0.774058577 L292.454585,0.774058577 L308.637745,17.4447173 L308.637745,1.13334001 L312,1.13334001 L312,24.7740586 L311.630521,24.7740586 Z" id="Paragraph-Copy-4" fill="#FFFFFF"></path>
            </g>
        </g>
    </g>
</svg>