<?xml version="1.0" encoding="UTF-8"?>
<svg width="48px" height="48px" viewBox="0 0 48 48" version="1.1" xmlns="http://www.w3.org/2000/svg" xmlns:xlink="http://www.w3.org/1999/xlink">
    <title>42855801-E98B-4B3C-AF61-B4A6AA0ABA3C</title>
    <g id="Mobile" stroke="none" stroke-width="1" fill="none" fill-rule="evenodd">
        <g id="Machine-Subscription-LP-[M]" transform="translate(-20.000000, -1087.000000)">
            <g id="LP-USP-Subscription" transform="translate(0.000000, 120.000000)">
                <g id="Group-12" transform="translate(20.000000, 695.193798)">
                    <g id="cups-icon" transform="translate(0.000000, 272.284238)">
                        <rect id="bounding-box" x="0" y="0" width="47.6498333" height="45.8882531"></rect>
                        <path d="M23.8249166,44.5116055 C11.4525573,44.5116055 1.42473002,34.8544998 1.42473002,22.9441265 C1.42473002,11.0337533 11.4525573,1.37664759 23.8249166,1.37664759 C36.197276,1.37664759 46.2251033,11.0337533 46.2251033,22.9441265 C46.2251033,34.8544998 36.197276,44.5116055 23.8249166,44.5116055 Z M23.8249166,43.5938404 C35.6635315,43.5938404 45.2625766,34.3496651 45.2625766,22.9441265 C45.2625766,11.538588 35.6635315,2.29441265 23.8249166,2.29441265 C11.9863018,2.29441265 2.38725665,11.538588 2.38725665,22.9441265 C2.38725665,34.3496651 11.9863018,43.5938404 23.8249166,43.5938404 Z" id="Combined-Shape" stroke="#771B2E" fill="#771B2E"></path>
                        <path d="M19.4985786,18.7475391 L20.274973,19.5934126 L20.1965494,20.2580275 L21.0670522,20.2580275 C22.8002157,20.2580275 24.2039996,21.6099145 24.2039996,23.2790041 C24.2039996,24.9480937 22.8002157,26.2999808 21.0670522,26.2999808 L21.0670522,26.2999808 L19.4593667,26.2999808 L18.7064994,32.4325634 L17.9301049,33.0971783 L9.30349966,33.0971783 L8.52710519,32.4325634 L6.95863151,19.5934126 L7.73502598,18.7475391 L19.4985786,18.7475391 Z M35.9675522,13.46083 L36.7439467,14.3067034 L36.5635722,15.7265625 L37.9281443,15.7265625 C39.8730517,15.7265625 41.4572101,17.2521557 41.4572101,19.1251612 C41.4572101,20.9981668 39.8730517,22.52376 37.9281443,22.52376 L37.9281443,22.52376 L35.6773846,22.52376 L34.3912362,32.4325634 L33.6148417,33.0971783 L21.0670522,33.0971783 L20.2906578,32.4325634 L20.2906578,32.425011 L20.8553083,27.8029167 C20.9886286,27.8029167 21.1297912,27.7878118 21.2631115,27.7727069 L21.2631115,27.7727069 L21.7571807,31.58669 L32.9325556,31.58669 L34.5951377,18.7475391 L21.6003333,18.7475391 L20.3847662,17.4334143 L20.2828154,17.2370508 L34.7755122,17.2370508 L35.0735222,14.9713183 L19.6005294,14.9713183 L19.8985394,17.2370508 L18.3143809,17.2370508 L17.9379473,14.3067034 L18.7143417,13.46083 L35.9675522,13.46083 Z M18.2437996,23.2790041 L8.98980492,23.2790041 L10.0014704,31.58669 L17.2321341,31.58669 L18.2437996,23.2790041 Z M21.0670522,21.7685158 L20.0083325,21.7685158 L19.6397412,24.7894925 L21.0670522,24.7894925 C21.9297128,24.7894925 22.6355259,24.1097727 22.6355259,23.2790041 C22.6355259,22.4482356 21.9297128,21.7685158 21.0670522,21.7685158 L21.0670522,21.7685158 Z M18.6202333,20.2580275 L8.61337124,20.2580275 L8.80158808,21.7685158 L18.4320165,21.7685158 L18.6202333,20.2580275 Z M37.9203019,17.2370508 L36.3596706,17.2370508 L35.8734438,21.0132716 L37.9281443,21.0132716 C39.0103911,21.0132716 39.880894,20.1673982 39.880894,19.1251612 C39.880894,18.0829243 39.0025488,17.2370508 37.9203019,17.2370508 L37.9203019,17.2370508 Z" id="Combined-Shape" fill="#771B2E"></path>
                    </g>
                </g>
            </g>
        </g>
    </g>
</svg>