<?xml version="1.0" encoding="UTF-8"?>
<svg width="51px" height="52px" viewBox="0 0 51 52" version="1.1" xmlns="http://www.w3.org/2000/svg" xmlns:xlink="http://www.w3.org/1999/xlink">
    <title>ABA5946C-3E39-4D34-BFAC-C92FA356285F</title>
    <g id="Mobile" stroke="none" stroke-width="1" fill="none" fill-rule="evenodd">
        <g id="Machine-Subscription-LP-[M]" transform="translate(-20.000000, -815.000000)">
            <g id="LP-USP-Subscription" transform="translate(0.000000, 120.000000)">
                <g id="machine-icon" transform="translate(20.000000, 695.193798)">
                    <rect id="bounding-box" x="3" y="3.86218777" width="47.6498333" height="45.8882531"></rect>
                    <path d="M22.9459346,0.916760506 C35.3182939,0.916760506 45.3461212,10.5738662 45.3461212,22.4842395 C45.3461212,34.3946127 35.3182939,44.0517184 22.9459346,44.0517184 C10.5735753,44.0517184 0.545747963,34.3946127 0.545747963,22.4842395 C0.545747963,10.5738662 10.5735753,0.916760506 22.9459346,0.916760506 Z M22.9459346,1.83452557 C11.1073198,1.83452557 1.5082746,11.0787009 1.5082746,22.4842395 C1.5082746,33.889778 11.1073198,43.1339533 22.9459346,43.1339533 C34.7845494,43.1339533 44.3835946,33.889778 44.3835946,22.4842395 C44.3835946,11.0787009 34.7845494,1.83452557 22.9459346,1.83452557 Z M33.2236217,15.5595858 L33.2279432,15.7658997 C34.5792759,15.7658997 35.6848673,16.8306182 35.6848673,18.131993 L35.6848673,20.160073 L35.3303683,20.4980864 L33.227748,20.4972299 L33.227748,31.9902299 L39.1912489,31.9905397 L39.545748,32.3285531 L39.545748,34.3566331 L39.1912489,34.6946464 L16.0259649,34.6946464 L15.6714659,34.3566331 L15.6714659,15.7658997 C15.6714659,13.7699528 17.3102251,12.0472964 19.4106016,11.7476425 L26.8537269,10.6318819 C30.0874533,10.166545 33.0944126,12.4815028 33.2236217,15.5595858 Z M14.6220083,15.7658997 L14.9765074,16.103913 L14.9765074,34.0186197 L14.6220083,34.3566331 L6.90024701,34.3566331 L6.54574796,34.0186197 L6.54574796,16.103913 L6.90024701,15.7658997 L14.6220083,15.7658997 Z M32.5189452,16.103913 L16.380464,16.103913 L16.380464,34.0186197 L32.5189452,34.0186197 L32.5189452,16.103913 Z M38.8367499,32.6665664 L33.2279432,32.6665664 L33.2279432,34.0186197 L38.8367499,34.0186197 L38.8367499,32.6665664 Z M14.2675093,16.4419264 L7.25474605,16.4419264 L7.25474605,33.6806064 L14.2675093,33.6806064 L14.2675093,16.4419264 Z M33.2279432,16.4419297 L33.2279432,19.8220597 L34.9758692,19.8220597 L34.9758692,18.131993 C34.9758692,17.2524732 34.2687871,16.5242269 33.3780161,16.4484346 L33.2279432,16.4419297 Z M26.9616856,11.3000222 L19.5181182,12.4158462 C17.8762529,12.6500931 16.5714255,13.9190987 16.3996596,15.4278864 L32.5054728,15.4278864 C32.2979071,12.8345923 29.7232476,10.9026365 26.9616856,11.3000222 Z" id="Combined-Shape" stroke="#771B2E" fill="#771B2E"></path>
                </g>
            </g>
        </g>
    </g>
</svg>