<?xml version="1.0" encoding="UTF-8"?>
<svg width="48px" height="49px" viewBox="0 0 48 49" version="1.1" xmlns="http://www.w3.org/2000/svg" xmlns:xlink="http://www.w3.org/1999/xlink">
    <title>58AF850D-4231-4B47-93CD-B3857003CBD1</title>
    <g id="Mobile" stroke="none" stroke-width="1" fill="none" fill-rule="evenodd">
        <g id="Machine-Subscription-LP-[M]" transform="translate(-20.000000, -940.000000)">
            <g id="LP-USP-Subscription" transform="translate(0.000000, 120.000000)">
                <g id="Group-12" transform="translate(20.000000, 695.193798)">
                    <g id="_brand-icons/80x80/Machine-price-range" transform="translate(0.000000, 125.521102)">
                        <rect id="bounding-box" x="0" y="0" width="47.6498333" height="45.8882531"></rect>
                        <path d="M23.8249166,1.37664759 C36.197276,1.37664759 46.2251033,11.0337533 46.2251033,22.9441265 C46.2251033,34.8544998 36.197276,44.5116055 23.8249166,44.5116055 C11.4525573,44.5116055 1.42473002,34.8544998 1.42473002,22.9441265 C1.42473002,11.0337533 11.4525573,1.37664759 23.8249166,1.37664759 Z M23.8249166,2.29441265 C11.9863018,2.29441265 2.38725665,11.538588 2.38725665,22.9441265 C2.38725665,34.3496651 11.9863018,43.5938404 23.8249166,43.5938404 C35.6635315,43.5938404 45.2625766,34.3496651 45.2625766,22.9441265 C45.2625766,11.538588 35.6635315,2.29441265 23.8249166,2.29441265 Z M23.92473,12.9632109 C27.17344,12.9632109 29.645215,15.4576826 29.645215,19.0597423 C29.645215,21.3735258 29.5013496,22.7384681 28.9469654,23.6567568 C28.3233426,24.6863017 27.7278548,25.3932052 26.9904607,25.8778806 L26.9904607,26.3179272 L35.7634873,29.6974048 L35.92473,29.9253346 L35.92473,33.8585806 L35.6674786,34.1044079 L12.1831136,34.1535735 L11.92473,33.9077462 L11.92473,29.9253346 L12.0859728,29.6974048 L20.8589993,26.3179272 L20.8589993,25.8775855 C20.036219,25.3346896 19.3518147,24.492025 18.7438336,23.3767784 C18.4442962,22.8273236 18.2929079,22.0052998 18.2346336,20.9047769 C18.2116524,20.470773 18.2049129,20.1057612 18.2041672,19.4761397 L18.204245,19.0597423 L18.204245,19.0597423 C18.204245,15.4576826 20.67602,12.9632109 23.92473,12.9632109 Z M23.92473,13.4548667 C20.9675472,13.4548667 18.71988,15.7231727 18.71988,19.0597423 L18.72037,19.6956692 C18.7224335,20.1873788 18.7299586,20.5088157 18.7496126,20.8799853 C18.8043824,21.9143248 18.9455338,22.6807635 19.2013507,23.1500197 C19.8005246,24.2491108 20.4687469,25.0549585 21.2566044,25.5397032 L21.3746343,25.7462606 L21.3746343,26.4837443 L21.2133915,26.711674 L12.440365,30.0911516 L12.440365,33.661378 L35.409095,33.6132919 L35.409095,30.0911516 L26.6360685,26.711674 L26.4748257,26.4837443 L26.4748257,25.7462606 L26.5932464,25.5394633 C27.3032769,25.1043298 27.8812123,24.4331724 28.5002671,23.4111693 C28.9896359,22.6005724 29.12958,21.2728337 29.12958,19.0597423 C29.12958,15.7231727 26.8819129,13.4548667 23.92473,13.4548667 Z" id="Combined-Shape" stroke="#771B2E" fill="#771B2E"></path>
                    </g>
                </g>
            </g>
        </g>
    </g>
</svg>